<?xml version="1.0" standalone="no"?>
<!DOCTYPE svg PUBLIC "-//W3C//DTD SVG 20010904//EN"
 "http://www.w3.org/TR/2001/REC-SVG-20010904/DTD/svg10.dtd">
<svg version="1.0" xmlns="http://www.w3.org/2000/svg"
 width="640.000000pt" height="640.000000pt" viewBox="0 0 640.000000 640.000000"
 preserveAspectRatio="xMidYMid meet">
<metadata>
Created by potrace 1.14, written by Peter Selinger 2001-2017
</metadata>
<g transform="translate(0.000000,640.000000) scale(0.100000,-0.100000)"
fill="#000000" stroke="none">
<path d="M3038 6326 c-1 -2 -48 -7 -103 -10 -127 -9 -347 -46 -501 -85 -660
-167 -1244 -542 -1670 -1071 -240 -299 -439 -669 -544 -1012 -45 -148 -49
-160 -54 -188 -2 -14 -11 -54 -20 -90 -78 -331 -94 -763 -40 -1124 42 -283
129 -581 244 -835 57 -127 116 -235 233 -426 7 -10 50 -71 97 -135 543 -737
1367 -1197 2275 -1268 171 -13 485 -7 633 13 866 117 1621 561 2129 1250 322
438 507 903 588 1480 20 142 26 460 11 640 -4 55 -19 165 -32 245 -139 831
-599 1563 -1287 2048 -48 34 -91 62 -96 62 -5 0 -11 4 -13 8 -5 13 -165 105
-290 168 -339 170 -743 286 -1113 319 -83 8 -440 16 -447 11z"/>
</g>
</svg>
